<?xml version="1.0" encoding="utf-8"?>
<!-- Generated by IcoMoon.io -->
<!DOCTYPE svg PUBLIC "-//W3C//DTD SVG 1.1//EN" "http://www.w3.org/Graphics/SVG/1.1/DTD/svg11.dtd">
<svg version="1.1" xmlns="http://www.w3.org/2000/svg" xmlns:xlink="http://www.w3.org/1999/xlink" width="768" height="768" viewBox="0 0 768 768">
<g id="icomoon-ignore">
</g>
<path d="M384 0c-212.077 0-384 171.922-384 384s171.922 384 384 384 384-171.923 384-384-171.923-384-384-384zM384 720.001c-47.218 0-92.154-9.759-132.923-27.339l174.861-196.717c3.905-4.393 6.062-10.067 6.062-15.945v-72c0-13.255-10.745-24-24-24-84.743 0-174.153-88.096-175.031-88.969-4.5-4.502-10.605-7.031-16.969-7.031h-96c-13.254 0-24 10.746-24 24v144c0 9.091 5.136 17.401 13.267 21.466l82.733 41.367v140.914c-87.039-60.717-144-161.574-144-275.748 0-51.535 11.617-100.355 32.353-144h87.647c6.366 0 12.47-2.529 16.971-7.029l96-96c4.5-4.501 7.029-10.605 7.029-16.971v-58.059c30.422-9.056 62.639-13.941 96-13.941 52.804 0 102.753 12.195 147.212 33.9-3.108 2.626-6.132 5.373-9.034 8.277-27.2 27.198-42.177 63.358-42.177 101.823s14.978 74.625 42.177 101.823c27.325 27.324 63.913 42.198 101.726 42.195 2.375 0 4.756-0.060 7.139-0.177 10.36 38.852 29.064 139.992-6.303 279.25-0.333 1.308-0.522 2.616-0.631 3.918-60.993 62.31-146.025 100.992-240.107 100.992z"></path>
</svg>
