<?xml version="1.0" encoding="utf-8"?>
<!-- Generated by IcoMoon.io -->
<!DOCTYPE svg PUBLIC "-//W3C//DTD SVG 1.1//EN" "http://www.w3.org/Graphics/SVG/1.1/DTD/svg11.dtd">
<svg version="1.1" xmlns="http://www.w3.org/2000/svg" xmlns:xlink="http://www.w3.org/1999/xlink" width="768" height="768" viewBox="0 0 768 768">
<g id="icomoon-ignore">
</g>
<path d="M384 144c-167.488 0-312.661 97.532-384 240 71.338 142.468 216.512 240 384 240 167.484 0 312.657-97.532 384-240-71.337-142.468-216.516-240-384-240zM573.338 271.278c45.121 28.781 83.356 67.33 112.075 112.722-28.719 45.392-66.956 83.942-112.077 112.722-56.696 36.163-122.168 55.278-189.336 55.278-67.17 0-132.644-19.115-189.339-55.278-45.119-28.779-83.353-67.329-112.074-112.722 28.719-45.393 66.956-83.943 112.076-112.722 2.938-1.875 5.907-3.692 8.895-5.475-7.47 20.496-11.558 42.616-11.558 65.697 0 106.037 85.962 192 192 192 106.037 0 192-85.963 192-192 0-23.081-4.089-45.201-11.556-65.699 2.984 1.784 5.954 3.602 8.894 5.477v0zM384 312c0 39.765-32.235 72-72 72s-72-32.235-72-72 32.235-72 72-72 72 32.236 72 72z"></path>
</svg>
