<?xml version="1.0" encoding="utf-8"?>
<!-- Generated by IcoMoon.io -->
<!DOCTYPE svg PUBLIC "-//W3C//DTD SVG 1.1//EN" "http://www.w3.org/Graphics/SVG/1.1/DTD/svg11.dtd">
<svg version="1.1" xmlns="http://www.w3.org/2000/svg" xmlns:xlink="http://www.w3.org/1999/xlink" width="720" height="640" viewBox="0 0 720 640">
<g id="icomoon-ignore">
</g>
<path d="M680 80h-640c-22 0-40 18-40 40v400c0 22 18 40 40 40h640c22 0 40-18 40-40v-400c0-22-18-40-40-40zM400 160h80v80h-80v-80zM520 280v80h-80v-80h80zM280 160h80v80h-80v-80zM400 280v80h-80v-80h80zM160 160h80v80h-80v-80zM280 280v80h-80v-80h80zM80 160h40v80h-40v-80zM80 280h80v80h-80v-80zM120 480h-40v-80h40v80zM480 480h-320v-80h320v80zM640 480h-120v-80h120v80zM640 360h-80v-80h80v80zM640 240h-120v-80h120v80z"></path>
</svg>
