<?xml version="1.0" encoding="utf-8"?>
<!-- Generated by IcoMoon.io -->
<!DOCTYPE svg PUBLIC "-//W3C//DTD SVG 1.1//EN" "http://www.w3.org/Graphics/SVG/1.1/DTD/svg11.dtd">
<svg version="1.1" xmlns="http://www.w3.org/2000/svg" xmlns:xlink="http://www.w3.org/1999/xlink" width="768" height="768" viewBox="0 0 768 768">
<g id="icomoon-ignore">
</g>
<path d="M696 312c-21.321 0-40.468 9.274-53.652 24h-142.467l100.738-100.738c19.734 1.092 39.833-5.89 54.908-20.967 28.118-28.118 28.118-73.706 0-101.823s-73.705-28.118-101.824 0c-15.077 15.077-22.058 35.173-20.967 54.907l-100.736 100.739v-142.466c14.726-13.183 24-32.331 24-53.652 0-39.765-32.235-72-72-72s-72 32.235-72 72c0 21.321 9.274 40.469 24 53.652v142.466l-100.738-100.739c1.091-19.734-5.892-39.832-20.968-54.907-28.118-28.118-73.706-28.118-101.823 0-28.118 28.119-28.118 73.706 0 101.823 15.077 15.076 35.173 22.059 54.909 20.967l100.74 100.738h-142.467c-13.183-14.726-32.331-24-53.652-24-39.765 0-72 32.235-72 72s32.235 72 72 72c21.321 0 40.468-9.274 53.652-24h142.467l-100.739 100.738c-19.736-1.092-39.832 5.891-54.909 20.967-28.118 28.119-28.118 73.707 0 101.824 28.119 28.118 73.706 28.118 101.823 0 15.076-15.077 22.059-35.173 20.968-54.908l100.737-100.74v142.467c-14.726 13.182-24 32.331-24 53.652 0 39.765 32.235 72 72 72s72-32.235 72-72c0-21.321-9.274-40.468-24-53.652v-142.467l100.738 100.738c-1.092 19.734 5.891 39.832 20.967 54.908 28.119 28.118 73.707 28.118 101.824 0s28.118-73.706 0-101.824c-15.077-15.077-35.173-22.058-54.908-20.967l-100.74-100.737h142.467c13.182 14.726 32.331 24 53.652 24 39.765 0 72-32.235 72-72s-32.236-72-72.001-72z"></path>
</svg>
