<?xml version="1.0" encoding="utf-8"?>
<!-- Generated by IcoMoon.io -->
<!DOCTYPE svg PUBLIC "-//W3C//DTD SVG 1.1//EN" "http://www.w3.org/Graphics/SVG/1.1/DTD/svg11.dtd">
<svg version="1.1" xmlns="http://www.w3.org/2000/svg" xmlns:xlink="http://www.w3.org/1999/xlink" width="768" height="768" viewBox="0 0 768 768">
<g id="icomoon-ignore">
</g>
<path d="M288 552c0-113.426 71.906-210.365 172.524-247.65 12.21-27.404 19.476-57.873 19.476-88.35 0-119.293 0-216-144-216s-144 96.707-144 216c0 74.295 43.127 148.578 96 178.374v39.585c-162.827 13.311-288 93.315-288 190.041h297.979c-6.498-22.898-9.979-47.049-9.979-72z"></path>
<path d="M552 336c-119.293 0-216 96.707-216 216s96.707 216 216 216c119.292 0 216-96.707 216-216s-96.707-216-216-216zM672 576h-96v96h-48v-96h-96v-48h96v-96h48v96h96v48z"></path>
</svg>
